<?xml version="1.0" encoding="UTF-8"?>
<svg id="Capa_2" data-name="Capa 2" xmlns="http://www.w3.org/2000/svg" viewBox="0 0 597.26 355.55">
  <defs>
    <style>
      .cls-1 {
        stroke: #191919;
        stroke-miterlimit: 10;
      }

      .cls-1, .cls-2 {
        fill: #191919;
      }

      .cls-3 {
        fill: #fb693a;
      }

      .cls-3, .cls-2 {
        stroke-width: 0px;
      }
    </style>
  </defs>
  <g id="Capa_1-2" data-name="Capa 1">
    <g>
      <path class="cls-2" d="M144.3.12c155.16-5.8,227.96,198.92,123.15,303.16-.25.25-.48.51-.7.79-53.54,66.91-175.33,48.97-254.69,50.12C5.41,354.28,0,348.92,0,342.28V12.03C0,5.45,5.33.12,11.91.12h132.39ZM158.33,267.13c103.21,4.1,140.87-103.41,78.07-154.68-28.66-27.98-87.78-25.06-132.57-24.6-6.53.07-11.76,5.38-11.76,11.91v155.46c0,6.58,5.33,11.91,11.91,11.91h54.35Z"/>
      <path class="cls-3" d="M597.26,350.65h-79.74c-3.63,0-7-1.89-8.9-4.99l-27.29-44.61-31.95-49.87-28.43-44.38c-5.62-8.77-19.21-4.79-19.21,5.63v127.8c0,5.76-4.67,10.43-10.43,10.43h-58.73c-5.75,0-10.42-4.66-10.43-10.41l-.62-326.11c-.01-5.77,4.66-10.45,10.43-10.45h59.35c5.76,0,10.43,4.67,10.43,10.43v86.35c0,10.38,13.51,14.39,19.17,5.69l63.23-97.17c1.92-2.96,5.21-4.74,8.74-4.74h60.3c8.36,0,13.32,9.34,8.64,16.27l-94.97,140.64"/>
      <g>
        <path class="cls-1" d="M169.77,132.13v50.15s5.18,0,5.18,0v-50.15"/>
        <path class="cls-1" d="M209.47,215.64l-36.04-36.04-3.33,3.33,36.04,36.04"/>
        <line class="cls-1" x1="173.79" y1="255.62" x2="173.79" y2="244.11"/>
        <line class="cls-1" x1="228.5" y1="235.52" x2="220.36" y2="227.38"/>
        <line class="cls-1" x1="116.78" y1="235.52" x2="124.91" y2="227.38"/>
        <line class="cls-1" x1="173.79" y1="100.78" x2="173.79" y2="112.29"/>
        <line class="cls-1" x1="228.5" y1="120.88" x2="220.36" y2="129.02"/>
        <line class="cls-1" x1="116.78" y1="120.88" x2="124.91" y2="129.02"/>
        <line class="cls-1" x1="101.28" y1="176.21" x2="112.79" y2="176.21"/>
        <line class="cls-1" x1="232.48" y1="176.21" x2="243.99" y2="176.21"/>
      </g>
    </g>
  </g>
</svg>