<?xml version="1.0" encoding="UTF-8"?>
<svg id="Capa_2" data-name="Capa 2" xmlns="http://www.w3.org/2000/svg" viewBox="0 0 597.76 356.55">
  <defs>
    <style>
      .cls-1 {
        stroke: #fff;
        stroke-miterlimit: 10;
      }

      .cls-1, .cls-2 {
        fill: #fff;
      }
    </style>
  </defs>
  <g id="Capa_1-2" data-name="Capa 1">
    <g>
      <path class="cls-1" d="M144.8.62c155.16-5.8,227.96,198.92,123.15,303.16-.25.25-.48.51-.7.79-53.54,66.91-175.33,48.97-254.69,50.12-6.64.1-12.05-5.26-12.05-11.9V12.53c0-6.58,5.33-11.91,11.91-11.91h132.39ZM158.83,267.63c103.21,4.1,140.87-103.41,78.07-154.68-28.66-27.98-87.78-25.06-132.57-24.6-6.53.07-11.76,5.38-11.76,11.91v155.46c0,6.58,5.33,11.91,11.91,11.91h54.35Z"/>
      <path class="cls-2" d="M597.76,351.15h-79.74c-3.63,0-7-1.89-8.9-4.99l-27.29-44.61-31.95-49.87-28.43-44.38c-5.62-8.77-19.21-4.79-19.21,5.63v127.8c0,5.76-4.67,10.43-10.43,10.43h-58.73c-5.75,0-10.42-4.66-10.43-10.41l-.62-326.11c-.01-5.77,4.66-10.45,10.43-10.45h59.35c5.76,0,10.43,4.67,10.43,10.43v86.35c0,10.38,13.51,14.39,19.17,5.69l63.23-97.17c1.92-2.96,5.21-4.74,8.74-4.74h60.3c8.36,0,13.32,9.34,8.64,16.27l-94.97,140.64"/>
      <g>
        <polyline class="cls-1" points="170.27 132.63 170.27 182.78 175.45 182.78 175.45 132.63"/>
        <polyline class="cls-1" points="209.97 216.14 173.93 180.1 170.6 183.43 206.63 219.47"/>
        <line class="cls-1" x1="174.29" y1="256.12" x2="174.29" y2="244.61"/>
        <line class="cls-1" x1="229" y1="236.02" x2="220.86" y2="227.88"/>
        <line class="cls-1" x1="117.28" y1="236.02" x2="125.41" y2="227.88"/>
        <line class="cls-1" x1="174.29" y1="101.28" x2="174.29" y2="112.79"/>
        <line class="cls-1" x1="229" y1="121.38" x2="220.86" y2="129.52"/>
        <line class="cls-1" x1="117.28" y1="121.38" x2="125.41" y2="129.52"/>
        <line class="cls-1" x1="101.78" y1="176.71" x2="113.29" y2="176.71"/>
        <line class="cls-1" x1="232.98" y1="176.71" x2="244.49" y2="176.71"/>
      </g>
    </g>
  </g>
</svg>